<svg data-name="Layer 2" xmlns="http://www.w3.org/2000/svg" >


<path d="M737.06,885.23c8.29,3.86,16.33-3.63,24.53-24.05,0,0,6.24-17.06-.14-39.56-5.27-18.57-29.72-28.14-47-28.14-19.72,0-42.91,8.55-68.23,26.4-12.52,8.26-24.52,19.19-36.25,31.18-6.9,7.37-13.33,14.66-19.34,22-9,7.37-25.43,22.5-56.52,53.71-24.52,24.54-48.52,49.58-56.5,57.58,10.66-20.53,30.13-46.64,50.35-72.21,0,0,40.79-48.8,40.79-60.77,0-8-11.46-23.47-24-23.47S431.46,934.76,431.46,934.76c0-11.48,85.82-102.09,85.82-142.59,0-15.21-5.33-50.38-45-50.38-75.7,0-156.45,58.64-156.45,106.6,0,22.14,18.39,40,49,40,16.53,0,31.45-7.19,37.33-20,4-8.51,2.93-15.18,1.05-19.19a18.73,18.73,0,0,0-4.79-6.9c-.28-.28-3.73-2.95-6.94-2.15a4.43,4.43,0,0,0-3.19,3c-.52,1.06,13.87,12.51,8.25,24.5-3.47,7.74-12,10.41-21.83,10.41-17.07,0-29.06-8.26-29.06-22.94,0-53.74,88.48-103.79,124-103.92,17.27,0,27.11,9.61,27.11,20.24,0,33.33-121.82,146.32-121.82,218,0,25.31,24.26,29,24.26,21.31,0-29.05,115.68-156.17,137.53-156.17,0,0-88,102.87-88,137.78,0,25.05,21.33,21.34,21.33,21.34,20.37-25.88,60.24-67.18,89.64-94.8C558,922,556.28,925,555,927.55c-8.8,17.85-14.4,34.38-16.52,49.3-8.26,60.24,24.51,86.37,64,86.37,113.26,0,154.31-101.29,154.31-101.29,6.4-9.32-2.4-12.79-6.91-6.39,0,0-41.33,96.2-147.4,96.2-22.38,0-38.39-13.84-33.84-47.7l.52-5.86c3.47-22.39,18.65-51.18,32-73,2.68-4.81,8.29-12.54,10.13-15.75,2.66-3.45,5.33-7.18,8-10.65a200.74,200.74,0,0,1,24.51-25.85C656,862,665.38,855.05,671.21,851.32c23-14.12,39.46-21.59,51.19-21.59,5.88,0,13.23,3.43,16.29,9.67,6.1,12.49-.05,27.12-.05,27.12S729.56,881.73,737.06,885.23Z" /></svg>