<?xml version="1.0" encoding="utf-8"?>
<!-- Generator: Adobe Illustrator 26.0.2, SVG Export Plug-In . SVG Version: 6.00 Build 0)  -->
<svg version="1.1" id="Layer_2" xmlns="http://www.w3.org/2000/svg" xmlns:xlink="http://www.w3.org/1999/xlink" x="0px" y="0px"
	 viewBox="0 0 1080 1920" style="enable-background:new 0 0 1080 1920;" xml:space="preserve">
<style type="text/css">
	.st0{fill:#FF0000;}
</style>
<path id="mc" class="st0" d="M738.59,866.61c0.04-0.07,0.07-0.12,0.1-0.19c0.53-1.32,5.81-15.13,0.01-27.02
	c-3.06-6.24-10.41-9.66-16.29-9.66c-11.73,0-28.24,7.46-51.19,21.58c-5.84,3.73-15.18,10.67-27.44,21.59
	c-9.58,8.54-17.58,17.05-24.51,25.85c-2.65,3.45-5.3,7.15-7.94,10.59c-0.04,0.05-0.07,0.09-0.1,0.15
	c-1.89,3.25-7.43,10.89-10.09,15.67c-13.32,21.83-28.48,50.58-31.98,72.96c-0.01,0.04-0.01,0.08-0.02,0.12l-0.51,5.8
	c-4.55,33.85,11.45,47.7,33.84,47.7c103.58,0,145.41-91.72,147.33-96.04c0.05-0.11,0.11-0.21,0.18-0.31
	c4.52-6.17,13.08-2.74,6.89,6.42c-0.05,0.08-0.1,0.16-0.14,0.25c-1.69,4.05-43.36,101.16-154.26,101.16
	c-39.45,0-72.22-26.13-63.96-86.37c2.12-14.92,7.73-31.45,16.52-49.3c0.01-0.03,0.03-0.05,0.04-0.08c0.78-1.57-1.2-3.05-2.47-1.83
	c-28.24,27.08-63.24,63.67-82.1,87.52c-0.26,0.33-0.64,0.53-1.06,0.58c-3.63,0.38-20.65,0.96-20.65-21.43
	c0-30.9,68.91-115.04,84.74-133.97c1.06-1.26-0.32-3.11-1.82-2.43c-30.58,13.85-132.5,127.52-132.5,154.79
	c0,7.73-24.26,4-24.26-21.31c0-71.7,121.81-184.7,121.81-218.02c0-10.63-9.83-20.21-27.11-20.24
	c-35.54,0.13-124.02,50.17-124.02,103.92c0,14.68,11.99,22.94,29.05,22.94c9.85,0,18.37-2.67,21.83-10.41
	c5.62-11.99-8.77-23.44-8.25-24.5c0.54-1.62,1.87-2.67,3.19-2.95c3.21-0.8,6.66,1.87,6.94,2.15c0,0,2.93,2.4,4.79,6.91
	c1.88,4.01,2.95,10.68-1.06,19.19c-5.88,12.81-20.8,20-37.32,20c-30.65,0-49.04-17.84-49.04-39.98c0-47.96,80.75-106.6,156.45-106.6
	c39.72,0,45.04,35.18,45.04,50.38c0,34.55-62.45,105.56-80.8,132.81c-1.07,1.59,1.1,3.34,2.42,1.95
	c23.52-24.65,95.39-99.06,105.84-99.06c12.52,0,23.97,15.45,23.97,23.47c0,11.97-40.79,60.77-40.79,60.77
	c-16.98,21.47-33.42,43.32-44.57,61.93c-0.95,1.59,1.16,3.22,2.46,1.89c11.22-11.52,29.59-30.5,48.26-49.18
	c30.96-31.08,47.41-46.22,56.41-53.62c0.07-0.06,0.14-0.13,0.2-0.2c5.99-7.27,12.39-14.53,19.26-21.86
	c11.72-11.99,23.72-22.92,36.25-31.18c25.32-17.85,48.5-26.39,68.23-26.39c17.32,0,41.76,9.57,47.04,28.14
	c6.38,22.5,0.14,39.56,0.14,39.56c-8.19,20.42-16.24,27.91-24.52,24.04C729.9,881.89,737.85,867.87,738.59,866.61z"/>
</svg>
