<?xml version="1.0" encoding="utf-8"?>
<!-- Generator: Adobe Illustrator 26.0.2, SVG Export Plug-In . SVG Version: 6.00 Build 0)  -->
<svg version="1.1" id="Layer_4" xmlns="http://www.w3.org/2000/svg" xmlns:xlink="http://www.w3.org/1999/xlink" x="0px" y="0px"
	 viewBox="0 0 1080 1920" style="enable-background:new 0 0 1080 1920;" xml:space="preserve">
<style type="text/css">
	.st0{fill:#FFFFFF;stroke:#000000;stroke-miterlimit:10;}
</style>
<path id="mc" class="st0" d="M737.06,885.23c8.29,3.86,16.33-3.62,24.52-24.04c0,0,6.24-17.06-0.14-39.56
	c-5.27-18.57-29.72-28.14-47.04-28.14c-19.72,0-42.91,8.54-68.23,26.39c-12.53,8.26-24.52,19.19-36.25,31.18
	c-6.87,7.33-13.26,14.58-19.26,21.86c-0.06,0.07-0.13,0.14-0.2,0.2c-9,7.41-25.45,22.54-56.41,53.62
	c-18.67,18.69-37.04,37.66-48.26,49.18c-1.29,1.33-3.41-0.3-2.46-1.89c11.15-18.6,27.59-40.46,44.57-61.93
	c0,0,40.79-48.8,40.79-60.77c0-8.01-11.45-23.47-23.97-23.47c-10.46,0-82.32,74.41-105.84,99.06c-1.32,1.38-3.49-0.36-2.42-1.95
	c18.36-27.25,80.8-98.26,80.8-132.81c0-15.2-5.32-50.38-45.04-50.38c-75.71,0-156.45,58.64-156.45,106.6
	c0,22.14,18.39,39.98,49.04,39.98c16.53,0,31.45-7.19,37.32-20c4.01-8.51,2.93-15.18,1.06-19.19c-1.86-4.51-4.79-6.91-4.79-6.91
	c-0.28-0.28-3.73-2.95-6.94-2.15c-1.32,0.28-2.65,1.33-3.19,2.95c-0.52,1.06,13.87,12.51,8.25,24.5
	c-3.46,7.74-11.98,10.41-21.83,10.41c-17.06,0-29.05-8.25-29.05-22.94c0-53.75,88.48-103.79,124.02-103.92
	c17.27,0.03,27.11,9.61,27.11,20.24c0,33.32-121.81,146.32-121.81,218.02c0,25.31,24.26,29.04,24.26,21.31
	c0-27.27,101.91-140.94,132.5-154.79c1.5-0.68,2.87,1.17,1.82,2.43c-15.83,18.93-84.74,103.06-84.74,133.97
	c0,22.39,10.72,26.19,20.65,21.43c14.06-13.24,54.93-61.02,83.16-88.1c1.26-1.21,3.24,0.26,2.47,1.83
	c-0.01,0.03-0.03,0.05-0.04,0.08c-8.79,17.85-14.4,34.38-16.52,49.3c-8.26,60.24,24.52,86.37,63.96,86.37
	c110.9,0,152.57-97.11,154.26-101.16c0.04-0.09,0.08-0.17,0.14-0.25c6.19-9.16-2.36-12.59-6.89-6.42c-0.07,0.1-0.13,0.2-0.18,0.31
	c-1.91,4.32-43.75,96.04-147.33,96.04c-22.38,0-38.39-13.84-33.84-47.7l0.51-5.8c0-0.04,0.01-0.08,0.02-0.12
	c3.5-22.38,18.66-51.13,31.98-72.96c2.66-4.77,8.2-12.42,10.09-15.67c0.03-0.05,0.06-0.1,0.1-0.15c2.64-3.43,5.29-7.13,7.94-10.59
	c6.93-8.79,14.93-17.31,24.51-25.85c12.26-10.92,21.61-17.86,27.44-21.59c22.95-14.12,39.46-21.58,51.19-21.58
	c5.88,0,13.22,3.42,16.29,9.66c5.8,11.89,0.52,25.7-0.01,27.02c-0.03,0.07-0.06,0.13-0.1,0.19
	C737.85,867.87,729.9,881.89,737.06,885.23z"/>
</svg>
