<?xml version="1.0" encoding="utf-8"?>
<!-- Generator: Adobe Illustrator 26.0.2, SVG Export Plug-In . SVG Version: 6.00 Build 0)  -->
<svg version="1.1" id="Layer_1" xmlns="http://www.w3.org/2000/svg" xmlns:xlink="http://www.w3.org/1999/xlink" x="0px" y="0px"
	 viewBox="0 0 48 48" style="enable-background:new 0 0 48 48;" xml:space="preserve">
<style type="text/css">
	.st0{fill:#F7D02C;}
	.st1{fill:#FAFAFA;}
	.st2{fill:#1A237E;}
</style>
<ellipse class="st0" cx="23.5" cy="23.5" rx="21.5" ry="15.5"/>
<path class="st1" d="M22.5,24.9c-2-5.5-4.9-10.9-6.1-13c-0.4-0.6-0.8-1.2-1.3-1.7l-2.6-2.6c-0.4-0.4-1.4,0-1.4,0l-1.6,1l-0.2,2.3
	L8.8,11c-0.5,0-0.9,0.4-0.9,0.9c0,0.5,0.4,1,0.9,1c1.9,0,3.6,1.6,3.6,1.6h2c0.3,0.3,1.1,1.4,1.3,2.4c0.1,0.6,0.2,1.2,0.1,1.8
	c-0.3,5.8,1.1,7.2,1.1,7.2C11.3,22.5,2,23,2,23l0.2,3L5,31c0.9,0.2,0.7-0.6,1.8-0.5c6.2,0.7,13.6,0,13.6,0c1.5,0,2-0.8,2.7-1.5
	C24,28,22.8,26,22.5,24.9z"/>
<path class="st1" d="M24.9,24.9c2-5.5,4.9-10.9,6.1-13c0.4-0.6,0.8-1.2,1.3-1.7l2.6-2.6c0.4-0.4,1.4,0,1.4,0L37.8,9l0.2,2.1l0.6-0.1
	c0.5,0,0.9,0.4,0.9,0.9c0,0.5-0.4,1-0.9,1c-1.9,0-3.6,1.6-3.6,1.6h-2c-0.3,0.3-1.1,1.4-1.3,2.4c-0.1,0.6-0.2,1.2-0.1,1.8
	c0.3,5.8-1.1,7.2-1.1,7.2c5.5-3.5,15-3,15-3l-0.2,3l-3,5c-0.9,0.2-0.7-0.6-1.8-0.5c-6.2,0.7-13.6,0-13.6,0c-1.5,0-2-0.8-2.7-1.5
	C23.4,28,24.5,26,24.9,24.9z"/>
<path class="st2" d="M43.8,16.3c-0.3-0.4-0.6-0.8-1-1.2c-0.1-0.1-0.1-0.1-0.2-0.2c-0.3-0.3-0.6-0.6-1-0.9c0,0-0.1,0-0.1-0.1
	c-0.6-0.5-1.2-1-1.8-1.5c0.1-0.2,0.1-0.4,0.1-0.6c0-0.8-0.6-1.4-1.5-1.4c0,0,0,0,0,0l0,0V9.3c0-0.5-0.3-1-0.8-1.3l-1.4-0.8
	c-0.2-0.1-1.4-0.5-1.9,0.1l-1.8,1.8c-0.4-0.1-0.9-0.2-1.2-0.3C28.9,8.3,26.4,8,24,8c-3,0-6.1,0.4-9,1.3l-1.9-1.9
	c-0.6-0.6-1.7-0.2-2-0.1L9.8,8C9.3,8.3,9,8.8,9,9.3v1.2l-0.1,0c-0.8,0-1.4,0.6-1.4,1.4c0,0.3,0.1,0.6,0.3,0.9
	c-1,0.7-1.9,1.5-2.7,2.4c-0.3,0.4-0.6,0.7-0.9,1.1c-1.5,2-2.1,4.5-2.2,7.2c0,2.6,0.5,5.2,1.9,7.3C5.4,33,7.4,34.7,9.6,36
	c4.4,2.6,9.4,3.7,14.4,3.8c2.5,0,5-0.3,7.5-0.9c2.4-0.6,4.8-1.6,7-2.9c2.2-1.3,4.1-3,5.6-5.2c1.5-2.1,1.9-4.7,1.9-7.3
	C45.9,20.9,45.4,18.3,43.8,16.3z M40.8,15.1c0.2,0.2,0.4,0.5,0.7,0.7c0.1,0.1,0.2,0.2,0.3,0.3c0.3,0.3,0.6,0.7,0.8,1.1
	c1.1,1.6,1.8,3.4,2,5.2c-2.3,0-8.4,0.1-13,2.3c0.3-1.1,0.6-3,0.4-6.1c0-0.6,0-1.1,0.1-1.7c0.1-0.8,0.7-1.6,1.1-2h0.7
	c0.7,0,1.4-0.2,2-0.6c0.6-0.4,1.6-1,2.6-1c0.1,0,0.1,0,0.2,0c0.3,0.2,0.5,0.4,0.8,0.6c0.1,0.1,0.2,0.1,0.2,0.2
	c0.3,0.2,0.5,0.5,0.8,0.7C40.6,14.9,40.7,15,40.8,15.1z M24,9c2.4,0,4.7,0.3,7,0.9c0.2,0.1,0.4,0.1,0.6,0.2
	c-0.5,0.5-0.9,1.1-1.2,1.7c-1.2,2.1-4.1,7.5-6.1,13.1c-0.1,0.2-0.2,0.4-0.3,0.7c-0.1,0.3-0.2,0.6-0.3,0.9c-0.1-0.3-0.2-0.6-0.3-0.9
	c-0.1-0.2-0.2-0.5-0.3-0.7c-2-5.6-4.9-11-6.1-13.1c-0.3-0.5-0.7-1-1.1-1.5C18.5,9.5,21.3,9.1,24,9z M5.4,17.2
	c0.3-0.4,0.5-0.7,0.8-1.1c0.1-0.1,0.2-0.2,0.3-0.3c0.2-0.2,0.4-0.4,0.6-0.7c0.1-0.1,0.2-0.2,0.4-0.3c0.2-0.2,0.5-0.4,0.7-0.6
	c0.1-0.1,0.2-0.2,0.3-0.2c0.2-0.2,0.5-0.4,0.7-0.6c0.9,0.1,1.7,0.5,2.3,0.9c0.6,0.4,1.3,0.6,2,0.6h0.7c0.4,0.4,0.9,1.2,1.1,2
	c0.1,0.6,0.1,1.2,0.1,1.7c-0.2,3,0.1,4.9,0.4,6.1c-4.2-2-9.7-2.3-12.4-2.3C3.6,20.6,4.3,18.8,5.4,17.2z M6.2,30.3
	C6,30,5.8,29.8,5.7,29.6c-1.3-1.8-2.2-3.9-2.2-6.1c0,0,0,0,0,0c2.9,0,9.2,0.4,13.3,2.9c0.2,0.1,0.5,0.1,0.6-0.1
	c0.2-0.2,0.2-0.5,0-0.7c0,0-1.2-1.4-0.9-6.8c0-0.6,0-1.3-0.1-2c-0.2-1.2-1.1-2.4-1.5-2.7c-0.1-0.1-0.2-0.1-0.4-0.1h-0.9
	c-0.5,0-1-0.2-1.4-0.5c-0.7-0.5-1.9-1.1-3.2-1.1c-0.1,0-0.2-0.1-0.3-0.1c-0.1-0.1-0.1-0.2-0.1-0.3c0-0.2,0.2-0.4,0.4-0.4l0.6,0.1
	c0.1,0,0.2,0,0.3-0.1l0.4,0.4c0.1,0.1,0.2,0.1,0.4,0.1c0.1,0,0.1,0,0.2,0l1.2-0.4l1.3,1.3c0.1,0.1,0.2,0.1,0.4,0.1s0.3,0,0.4-0.1
	c0.2-0.2,0.2-0.5,0-0.7L12.7,11l0.1-0.1c0.1-0.1,0.1-0.2,0.1-0.4s0-0.3-0.1-0.4l-1-1c-0.2-0.2-0.5-0.2-0.7,0C11,9.2,11,9.4,11,9.5
	s0,0.3,0.1,0.4l0.6,0.6l-0.1,0.1l-1.1,0.4L10,10.3v-1c0-0.2,0.1-0.3,0.2-0.4l1.2-0.7C11.8,8,12.3,8,12.4,8.1l2.6,2.6
	c0.5,0.5,0.9,1,1.2,1.6c1.2,2,4.1,7.4,6,12.9c0.1,0.2,0.2,0.5,0.3,0.7c0.3,0.9,0.7,1.9,0.6,2.6c-0.2,0.9-1.3,1.6-2.5,1.6
	c-0.1,0-7.1,0.1-13.4,0C6.8,30,6.5,30.1,6.2,30.3z M37.2,33.9c-2,1.1-4.2,1.9-6.4,2.4c-2.2,0.5-4.5,0.8-6.8,0.8
	c-4.6,0-9.3-1-13.2-3.2c-1.4-0.8-2.7-1.8-3.8-2.9C7,31,7,31,7,31c6.3,0.1,13.4,0,13.5,0c1.4,0,2.6-0.7,3.2-1.7
	c0.6,1,1.8,1.7,3.2,1.7c0.1,0,7.1,0.1,13.5,0c0.1,0,0.3,0.1,0.5,0.2C39.7,32.3,38.5,33.2,37.2,33.9z M42.3,29.6
	c-0.2,0.3-0.5,0.6-0.8,0.9c-0.4-0.3-0.8-0.5-1.2-0.5c0,0,0,0,0,0C34,30.1,27,30,26.9,30c-1.2,0-2.3-0.7-2.5-1.6
	c-0.2-0.7,0.2-1.7,0.6-2.6c0.1-0.2,0.2-0.5,0.3-0.7c2-5.5,4.9-10.9,6-12.9c0.3-0.6,0.7-1.1,1.2-1.6L35,8.1c0.1-0.1,0.5,0,0.8,0.1
	l1.3,0.7c0.2,0.1,0.2,0.3,0.2,0.4v1l-0.6,0.6l-1.1-0.4l-0.1-0.1l0.6-0.6c0.1-0.1,0.1-0.2,0.1-0.4s0-0.3-0.1-0.4
	C36,9,35.7,9,35.5,9.1l-1,1c-0.1,0.1-0.1,0.2-0.1,0.4s0,0.3,0.1,0.4l0.1,0.1l-1.1,1.1c-0.2,0.2-0.2,0.5,0,0.7
	c0.1,0.1,0.2,0.1,0.4,0.1s0.3,0,0.4-0.1l1.3-1.3l1.2,0.4c0.1,0,0.1,0,0.2,0c0.1,0,0.3-0.1,0.4-0.1l0.4-0.4c0.1,0.1,0.2,0.1,0.3,0.1
	l0.5-0.1c0.2,0,0.4,0.2,0.4,0.4c0,0.1-0.1,0.3-0.1,0.3c-0.1,0.1-0.2,0.1-0.3,0.1c-1.3,0-2.4,0.6-3.2,1.1c-0.4,0.3-0.9,0.5-1.4,0.5
	h-0.9c-0.1,0-0.3,0.1-0.4,0.1c-0.3,0.3-1.2,1.5-1.5,2.7c-0.1,0.7-0.2,1.3-0.1,2c0.3,5.4-0.9,6.8-0.9,6.8c-0.2,0.2-0.2,0.5,0,0.7
	c0.2,0.2,0.4,0.2,0.7,0.1c4.4-2.8,11.6-3,13.9-2.9c0,0,0,0,0,0C44.5,25.7,43.7,27.8,42.3,29.6z"/>
</svg>
